<svg width="1000" height="624" viewBox="0 0 1000 624" fill="none" xmlns="http://www.w3.org/2000/svg">
<path d="M725.39 62.54L771.29 0.330017H228.71L274.61 62.54H725.39Z" fill="white"/>
<path d="M446.53 527.42V527.43H553.33V527.38L553.35 527.4L750.33 292.61L751.37 291.74L668.4 192.85L668.36 192.88V192.81H331.46V192.88L248.65 291.58L446.53 527.42ZM670.02 291.56L524.32 465.22H475.56L329.87 291.58L360.54 255.02H639.36L670.02 291.56Z" fill="white"/>
<path d="M875.85 292.69L876.99 291.74L713.25 96.57H286.76L123.01 291.74L124.15 292.69L401.83 623.66L401.84 623.65V623.66H598.17V623.65L598.18 623.66L875.85 292.69ZM204.38 291.54L315.77 158.78H684.24L795.63 291.54L569.16 561.46H430.84L204.38 291.54Z" fill="white"/>
<path d="M0 291.74L278.48 623.67H359.69L81.2 291.74H0Z" fill="white"/>
<path d="M918.8 291.74L640.31 623.67H721.52L1000 291.74H918.8Z" fill="white"/>
<path d="M383.89 289.05L499.04 431.19L616.11 289.05H383.89Z" fill="white"/>
</svg>
