<?xml version="1.0" encoding="utf-8"?>
<!-- Generator: Adobe Illustrator 23.0.0, SVG Export Plug-In . SVG Version: 6.00 Build 0)  -->
<svg version="1.1" id="Слой_1" xmlns="http://www.w3.org/2000/svg" xmlns:xlink="http://www.w3.org/1999/xlink" x="0px" y="0px"
	 viewBox="0 0 1000 1000" style="enable-background:new 0 0 1000 1000;" xml:space="preserve">
<style type="text/css">
	.st0{fill:#262626;}
</style>
<g>
	<polygon class="st0" points="725.39,250.54 771.29,188.33 228.71,188.33 274.61,250.54 	"/>
	<path class="st0" d="M446.53,715.42L446.53,715.42l0,0.01h106.8v-0.05l0.02,0.02l196.98-234.79l1.04-0.87l-82.97-98.89l-0.04,0.03
		v-0.07h-336.9v0.07l-82.81,98.7l0,0L446.53,715.42z M670.02,479.56l-145.7,173.66h-48.76L329.87,479.58l30.67-36.56h278.82
		L670.02,479.56z"/>
	<path class="st0" d="M875.85,480.69l1.14-0.95L713.25,284.57v0h0l0,0l0,0H286.76l0,0l0,0h0v0L123.01,479.74l1.14,0.95
		l277.68,330.97l0.01-0.01v0.01h196.33v-0.01l0.01,0.01L875.85,480.69z M204.38,479.54l111.39-132.76h368.47l111.39,132.76
		L569.16,749.46H430.84L204.38,479.54z"/>
	<polygon class="st0" points="0,479.74 278.48,811.67 359.69,811.67 81.2,479.74 	"/>
	<polygon class="st0" points="918.8,479.74 640.31,811.67 721.52,811.67 1000,479.74 	"/>
	<polygon class="st0" points="383.89,477.05 499.04,619.19 616.11,477.05 	"/>
</g>
</svg>
