<svg width="1024" height="640" viewBox="0 0 1024 640" fill="none" xmlns="http://www.w3.org/2000/svg">
<path d="M742.799 64.5529L789.801 0.849915H234.199L281.201 64.5529H742.799Z" fill="#272727"/>
<path d="M457.247 540.59V540.6H566.61V540.549L566.63 540.57L768.338 300.145L769.403 299.254L684.442 197.99L684.401 198.021V197.949H339.415V198.021L254.618 299.09L457.247 540.59ZM686.101 299.069L536.904 476.897H486.973L337.787 299.09L369.193 261.652H654.705L686.101 299.069Z" fill="#272727"/>
<path d="M896.87 300.227L898.038 299.254L730.368 99.3997H293.642L125.962 299.254L127.13 300.227L411.474 639.14L411.484 639.13V639.14H612.526V639.13L612.536 639.14L896.87 300.227ZM209.285 299.049L323.348 163.103H700.662L814.725 299.049L582.82 575.447H441.18L209.285 299.049Z" fill="#272727"/>
<path d="M0 299.254L285.164 639.15H368.323L83.1488 299.254H0Z" fill="#272727"/>
<path d="M940.851 299.254L655.677 639.15H738.836L1024 299.254H940.851Z" fill="#272727"/>
<path d="M393.103 296.499L511.017 442.051L630.897 296.499H393.103Z" fill="#272727"/>
</svg>
